<svg width="248" height="231" viewBox="0 0 248 231" fill="none" xmlns="http://www.w3.org/2000/svg">
<path d="M123.776 197.126C70.9207 197.126 28.0733 194.795 28.0733 191.919C28.0733 189.043 70.9207 186.712 123.776 186.712C176.631 186.712 219.478 189.043 219.478 191.919C219.478 194.795 176.631 197.126 123.776 197.126Z" fill="#F5F5F5"/>
<path d="M178.204 191.919H180.178" stroke="#EB0029" stroke-linecap="round" stroke-linejoin="round"/>
<path d="M183.91 191.919H234.33" stroke="#EB0029" stroke-linecap="round" stroke-linejoin="round" stroke-dasharray="7.57 7.57"/>
<path d="M236.196 191.919H238.17" stroke="#EB0029" stroke-linecap="round" stroke-linejoin="round"/>
<path d="M60.7164 81.8092L117.669 82.6894L116.987 121.007L60.0346 120.127L60.7164 81.8092Z" fill="#EB0029"/>
<path opacity="0.3" d="M83.292 82.1534L117.725 82.6855L117.043 121.003L82.6102 120.471L83.292 82.1534Z" fill="white"/>
<path opacity="0.3" d="M78.1033 84.7353L88.0195 84.9202L87.9642 87.4962L78.048 87.3113L78.1033 84.7353Z" fill="white"/>
<path opacity="0.3" d="M77.8087 114.531L87.7236 114.685L87.6778 117.26L77.7629 117.107L77.8087 114.531Z" fill="white"/>
<path d="M71.1981 106.336C67.9842 106.336 65.3787 103.589 65.3787 100.2C65.3787 96.8106 67.9842 94.0632 71.1981 94.0632C74.4121 94.0632 77.0176 96.8106 77.0176 100.2C77.0176 103.589 74.4121 106.336 71.1981 106.336Z" stroke="white" stroke-miterlimit="10"/>
<path d="M70.9565 94.997V96.0274" stroke="white" stroke-linecap="round" stroke-linejoin="round"/>
<path d="M70.7046 104.436V105.467" stroke="white" stroke-linecap="round" stroke-linejoin="round"/>
<path d="M76.1045 99.9972H74.9939" stroke="white" stroke-linecap="round" stroke-linejoin="round"/>
<path d="M67.1904 100.002H66.0799" stroke="white" stroke-linecap="round" stroke-linejoin="round"/>
<path d="M70.9614 99.9972L70.9569 96.8232" stroke="white" stroke-width="0.5" stroke-linecap="round" stroke-linejoin="round"/>
<path d="M70.7441 100.204L68.3354 102.449" stroke="white" stroke-width="0.5" stroke-linecap="round" stroke-linejoin="round"/>
<path d="M70.4235 100.002C70.4235 100.101 70.4551 100.198 70.5142 100.28C70.5733 100.363 70.6573 100.427 70.7556 100.465C70.8539 100.503 70.9621 100.513 71.0665 100.494C71.1708 100.474 71.2667 100.426 71.3419 100.356C71.4172 100.286 71.4684 100.197 71.4892 100.1C71.5099 100.002 71.4993 99.9015 71.4586 99.8099C71.4178 99.7183 71.3489 99.64 71.2604 99.5849C71.1719 99.5298 71.0679 99.5004 70.9615 99.5004C70.8907 99.4998 70.8204 99.5123 70.7549 99.5373C70.6893 99.5623 70.6297 99.5992 70.5796 99.6459C70.5296 99.6926 70.4899 99.7481 70.4631 99.8092C70.4363 99.8703 70.4229 99.9358 70.4235 100.002Z" fill="white"/>
<path opacity="0.3" d="M71.1984 107.96C66.943 107.96 63.4934 104.485 63.4934 100.2C63.4934 95.9138 66.943 92.4394 71.1984 92.4394C75.4537 92.4394 78.9033 95.9138 78.9033 100.2C78.9033 104.485 75.4537 107.96 71.1984 107.96Z" fill="white"/>
<path d="M135.188 167.498C134.329 168.109 117.088 166.38 121.545 137.874C121.545 137.874 113.366 139.81 112.487 139.681C112.487 139.681 100.488 156.826 109.225 165.317C117.961 173.809 130.982 174.329 130.982 174.329L135.188 167.498Z" fill="#EB0029"/>
<path opacity="0.3" d="M135.188 167.498C134.329 168.109 117.088 166.38 121.545 137.874C121.545 137.874 113.366 139.81 112.487 139.681C112.487 139.681 100.488 156.826 109.225 165.317C117.961 173.809 130.982 174.329 130.982 174.329L135.188 167.498Z" fill="black"/>
<path d="M116.081 142.285C116.036 142.285 120.898 142.372 122.527 140.486C124.156 138.6 125.257 135.229 122.295 132.929C119.333 130.629 101.944 120.693 93.7556 119.911C85.5669 119.129 76.8007 124.051 76.8007 124.051L87.5215 131.438L110.607 136.645L116.081 142.285Z" fill="#263238"/>
<path d="M131.801 163.008L131.352 167.13L126.041 166.711L126.841 162.474L131.801 163.008Z" fill="#FFC3BD"/>
<path d="M132.833 166.831L125.128 166.729L124.58 170.354C124.58 170.354 131.797 170.446 134.763 170.078C137.73 169.71 137.266 168.27 137.266 168.27C137.266 168.27 133.791 168.349 132.833 166.831Z" fill="#263238"/>
<path d="M65.5922 177.263C64.4417 166.726 71.2677 157.449 80.8385 156.541C90.4092 155.634 99.1004 163.44 100.251 173.977C101.401 184.514 94.5754 193.791 85.0046 194.699C75.4339 195.607 66.7426 187.8 65.5922 177.263Z" fill="#263238"/>
<path d="M95.0288 116.962C95.0288 116.962 94.2292 134.06 104.901 134.548C115.572 135.035 127.038 133.945 127.038 133.945L123.677 164.669L133.682 165.244C133.682 165.244 140.864 139.18 141.994 132.63C143.124 126.079 142.142 121.447 134.723 118.54C127.305 115.633 95.0288 116.962 95.0288 116.962Z" fill="#EB0029"/>
<path d="M154.749 171.21L141.456 135.229L123.687 116.948C123.687 116.948 139.196 117.003 146.649 120.996C154.102 124.989 154.378 129.787 155.746 135.495C157.113 141.204 162.597 168.224 162.597 168.224L154.749 171.21Z" fill="#EB0029"/>
<path opacity="0.7" d="M95.029 116.962C95.029 116.962 111.545 116.277 123.657 116.962C123.657 116.962 139.166 117.017 146.619 121.01C154.072 125.003 154.378 129.787 155.746 135.495C157.113 141.204 162.597 168.224 162.597 168.224L154.749 171.21L141.456 135.229C139.22 145.201 133.682 165.225 133.682 165.225L123.677 164.669L127.043 133.964C127.043 133.964 115.582 135.054 104.906 134.566C94.2294 134.079 95.029 116.962 95.029 116.962Z" fill="black"/>
<path d="M122.295 89.2286L128.43 89.9232C128.43 89.9232 129.496 100.434 130.489 102.477C130.489 102.477 149.359 104.892 157.088 104.685L161.012 107.169L161.15 111.488L157.305 111.594L156.066 108.857C156.066 108.857 153.47 108.751 152.868 107.389C152.868 107.389 132.818 111.902 125.434 106.75C125.424 106.755 120.972 100.66 122.295 89.2286Z" fill="#FFC3BD"/>
<path d="M104.713 61.0812C104.713 61.0812 102.793 63.3812 103.524 65.373C103.725 65.941 104.081 66.4511 104.555 66.8539C105.03 67.2568 105.608 67.5389 106.233 67.673C106.233 67.673 106.594 70.8608 108.613 70.9528C110.631 71.0448 109.955 63.9286 109.955 63.9286L104.713 61.0812Z" fill="#263238"/>
<path d="M120.256 117.04L121.604 96.492L129.965 91.3124C129.965 91.3124 127.231 82.3286 121.999 80.806C116.767 79.2834 105.355 75.792 98.4347 77.5262C91.5146 79.2604 92.3093 86.8688 93.4988 92.513L94.8315 92.8074C94.8315 92.8074 95.0388 115.048 95.0487 116.962L120.256 117.04Z" fill="#263238"/>
<path d="M105.212 78.7958C107.951 81.266 113.539 82.738 115.084 81.5098C116.628 80.2816 114.679 79.1546 113.228 77.7654C112.443 77.0018 112.467 75.5712 112.65 74.4304C112.746 73.8556 112.888 73.2882 113.075 72.733C118.203 72.4708 120.33 70.2352 120.543 66.293C120.755 62.3508 118.84 57.7738 118.84 57.7738L115.217 54.8942C115.217 54.8942 110.281 55.5842 106.332 58.1142C103.983 59.6046 104.679 62.5394 105.651 64.706C106.063 65.6282 106.558 66.5162 107.132 67.3602C107.685 72.756 105.212 78.7958 105.212 78.7958Z" fill="#FFC3BD"/>
<path d="M117.689 67.3786C117.689 67.3786 115.715 67.466 114.851 66.3252" stroke="#263238" stroke-linecap="round" stroke-linejoin="round"/>
<path d="M114.546 62.7234C114.546 63.073 114.773 63.349 115.039 63.3444C115.306 63.3398 115.498 63.05 115.488 62.7004C115.479 62.3508 115.261 62.0748 114.995 62.0794C114.728 62.084 114.531 62.3738 114.546 62.7234Z" fill="#263238"/>
<path d="M119.047 62.8338C119.047 63.1834 119.274 63.4594 119.541 63.4548C119.807 63.4502 120 63.1604 119.99 62.8108C119.98 62.4612 119.763 62.1852 119.496 62.1898C119.23 62.1944 119.032 62.4888 119.047 62.8338Z" fill="#263238"/>
<path d="M117.482 65.6904L117.685 62.8706L119.131 65.5478C118.905 65.7266 118.626 65.8362 118.331 65.8618C118.036 65.8873 117.739 65.8275 117.482 65.6904Z" fill="#ED847E"/>
<path d="M114.782 60.5154C114.404 60.4185 114 60.4499 113.644 60.604C113.288 60.7581 113.002 61.025 112.837 61.3572" stroke="#263238" stroke-linecap="round" stroke-linejoin="round"/>
<path d="M120.439 61.0352C120.439 61.0352 119.531 60.1152 118.465 60.3498" stroke="#263238" stroke-linecap="round" stroke-linejoin="round"/>
<path d="M105.616 64.706C111.263 64.8946 111.964 58.9284 111.964 58.9284C114.758 60.3084 118.82 57.7784 118.82 57.7784L115.197 54.8896C115.197 54.8896 110.261 55.5888 106.312 58.1096C103.948 59.6046 104.644 62.5486 105.616 64.706Z" fill="#263238"/>
<path d="M120.637 59.5264C120.637 59.5264 123.559 57.714 122.27 56.4076C120.982 55.1012 113.09 57.5852 107.191 60.6304C107.191 60.6304 120.701 52.2078 124.373 54.8712C127.409 57.0746 120.676 60.1336 120.878 60.129L120.637 59.5264Z" fill="#EB0029"/>
<path d="M104.155 58.91C104.164 59.8638 104.358 60.8084 104.728 61.6976L117.996 55.7176C117.446 55.1261 116.787 54.6307 116.051 54.2548C115.266 53.8362 114.412 53.5409 113.524 53.3808C112.582 53.213 111.618 53.182 110.666 53.2888C105.814 53.8086 104.131 57.2862 104.155 58.91Z" fill="#EB0029"/>
<path d="M162.912 119.805C162.912 119.805 177.898 139.125 165.558 168.864" stroke="#263238" stroke-linecap="round" stroke-linejoin="round"/>
<path d="M143.134 129.842C143.134 129.842 143.134 129.879 143.134 129.952C143.134 130.026 143.134 130.067 143.134 130.15V130.196C143.313 132.057 143.643 133.902 144.122 135.716C144.803 138.398 145.706 140.951 146.451 143.003C149.61 151.72 149.245 161.113 149.245 161.113C150.292 159.898 152.207 159.034 154.601 158.426C163.317 156.195 178.115 157.391 178.115 157.391C181.018 147.902 179.981 133.048 177.094 124.731C174.206 116.415 166.2 118.291 166.2 118.291C166.2 118.291 157.75 118.521 156.688 118.416C154.746 118.196 152.78 118.233 150.849 118.526C144.324 119.639 142.754 124.446 143.134 129.842Z" fill="#EB0029"/>
<path d="M78.074 166.049C92.8817 178.505 121.466 179.812 142.734 178.432L154.65 158.454L159.477 150.363L143.968 130.882L143.149 129.856C143.149 129.856 143.149 129.893 143.149 129.966C143.149 130.04 143.149 130.081 143.149 130.164V130.21C143.361 133.683 144.733 161.554 133.771 168.39L133.682 168.45C132.199 169.343 130.477 169.834 128.712 169.867C108.598 170.409 109.16 145.947 114.274 140.707L79.3721 134.171C79.3721 134.171 72.4816 150.34 78.074 166.049Z" fill="#EB0029"/>
<path d="M116.895 135.403C116.895 135.403 120.167 137.933 118.479 141.328C116.791 144.723 100.517 138.131 94.1106 136.931C87.7038 135.73 80.2901 134.557 77.1015 133.945C73.9129 133.333 74.1893 124.81 76.7954 124.055C79.4016 123.301 104.93 127.505 109.165 129.814C111.962 131.397 114.555 133.272 116.895 135.403Z" fill="#263238"/>
<path d="M108.701 66.8128C109.013 66.5003 109.201 66.0987 109.236 65.6735C109.271 65.2482 109.151 64.8245 108.894 64.4714C108.104 63.3674 106.51 61.6148 104.98 62.9258C102.837 64.7658 106.495 68.11 108.01 67.3004C108.264 67.169 108.497 67.0049 108.701 66.8128Z" fill="#FFC3BD"/>
<path opacity="0.2" d="M120.636 59.5264C120.636 59.5264 123.558 57.714 122.27 56.4076C121.698 55.828 119.985 55.9476 117.67 56.564C116.181 56.9375 114.723 57.4094 113.307 57.9762C111.273 58.7996 109.111 59.853 107.191 60.6304C107.191 60.6304 120.701 52.2078 124.373 54.8712C127.408 57.0746 121.095 59.9312 120.873 60.1244L120.765 59.7518L120.636 59.5264Z" fill="black"/>
<path d="M119.25 58.7398C119.25 58.7398 122.211 59.1998 120.168 62.1714L119.25 58.7398Z" fill="#263238"/>
<path d="M116.411 56.9274C116.411 56.9274 120.878 55.4646 122.122 56.2926C123.366 57.1206 122.063 58.6984 120.641 59.5126L119.501 59.6506L118.83 57.7646L117.092 57.5668L116.411 56.9274Z" fill="#263238"/>
<path opacity="0.3" d="M110.325 54.678L111.396 56.1546L116.051 54.2686C115.266 53.85 114.412 53.5547 113.524 53.3946L110.325 54.678Z" fill="white"/>
<path opacity="0.1" d="M111.362 72.3282C111.67 73.0916 112.112 73.802 112.67 74.4304C112.766 73.8556 112.908 73.2882 113.094 72.733C112.496 72.694 111.909 72.557 111.362 72.3282Z" fill="black"/>
<path d="M155.612 112.781C155.81 115.968 157.29 118.577 159.107 119.221C159.421 119.333 159.758 119.382 160.094 119.363C162.335 119.244 163.964 116.111 163.737 112.371C163.51 108.631 161.506 105.697 159.265 105.816C158.352 105.862 157.547 106.41 156.92 107.288C155.997 108.549 155.479 110.563 155.612 112.781Z" fill="#F5F5F5"/>
<path d="M155.612 112.781C155.81 115.968 157.291 118.577 159.107 119.221C161.18 119.11 162.685 116.217 162.473 112.781C162.261 109.344 160.415 106.617 158.342 106.727C157.808 106.764 157.302 106.967 156.906 107.302C155.997 108.549 155.479 110.563 155.612 112.781Z" fill="white"/>
<path d="M75.616 157.966C79.4315 155.469 94.1948 153.017 94.1948 153.017C103.163 153.017 111.036 160.538 112.122 170.524C113.011 178.648 109.16 186.022 102.956 189.384C102.956 189.384 102.438 189.587 101.569 189.904C98.2817 191.114 89.94 194.044 85.0091 194.688" fill="#263238"/>
<path opacity="0.3" d="M65.5922 177.263C64.4417 166.726 71.2677 157.449 80.8385 156.541C90.4092 155.634 99.1004 163.44 100.251 173.977C101.401 184.514 94.5754 193.791 85.0046 194.699C75.4339 195.607 66.7426 187.8 65.5922 177.263Z" fill="black"/>
<path d="M142.326 176.65C141.175 166.113 148.001 156.836 157.572 155.928C167.143 155.02 175.834 162.827 176.984 173.364C178.135 183.901 171.309 193.178 161.738 194.086C152.167 194.993 143.476 187.187 142.326 176.65Z" fill="#263238"/>
<path d="M149.008 159.443L157.833 193.975C159.121 194.17 160.43 194.205 161.728 194.081H161.826C163.52 193.676 162.764 194.113 164.462 193.589C168.781 192.259 175.055 189.909 175.055 189.909C181.703 186.896 185.46 179.568 184.546 171.196C183.441 161.053 175.632 153.477 166.442 154.098C166.442 154.098 162.078 154.848 157.587 155.938C155.612 156.398 153.638 156.945 152.014 157.516C150.939 158.053 149.931 158.699 149.008 159.443Z" fill="#263238"/>
<path opacity="0.3" d="M142.325 176.629C143.312 185.714 149.911 192.765 157.843 193.957C159.131 194.151 160.44 194.187 161.738 194.063H161.836C163.644 193.881 165.4 193.393 167.019 192.623C173.687 189.472 177.908 181.817 176.985 173.353C175.835 162.824 167.162 155.027 157.596 155.919H157.572C155.629 156.102 153.745 156.638 152.024 157.497C150.948 158.036 149.94 158.684 149.018 159.429C144.294 163.256 141.545 169.678 142.325 176.629Z" fill="black"/>
<path d="M144.729 164.531C145.018 164.1 145.348 163.696 145.716 163.321C147.922 160.515 152.967 159.466 156.269 159.714C158.8 159.945 161.231 160.757 163.342 162.079C165.751 163.532 167.473 165.759 169.862 167.286C174.393 170.202 181.269 170.12 185.82 167.116C186.077 166.946 186.321 166.76 186.551 166.559C187.014 166.109 187.324 165.541 187.439 164.926C187.613 164.159 187.55 163.361 187.256 162.626C186.269 160.041 182.977 157.769 180.899 156.384C176.686 153.614 171.731 151.988 166.585 151.687C151.91 150.744 145.652 162.424 144.729 164.531Z" fill="#EB0029"/>
<path opacity="0.3" d="M145.746 164.899C148.9 160.657 152.947 159.466 156.249 159.714C158.781 159.945 161.211 160.757 163.322 162.079C165.731 163.532 167.454 165.759 169.843 167.286C174.374 170.202 181.25 170.12 185.801 167.116C186.057 166.946 186.301 166.76 186.531 166.559C186.995 166.109 187.304 165.541 187.42 164.926C187.594 164.159 187.53 163.361 187.237 162.626C185.712 164.268 181.269 168.224 175.252 166.306C167.75 163.891 165.919 156.715 157.898 156.78C151.526 156.849 147.602 161.449 145.746 164.899Z" fill="black"/>
<g opacity="0.3">
<path opacity="0.3" d="M178.752 155.119C176.612 153.701 174.204 152.673 171.654 152.088C169.102 151.482 166.459 151.28 163.836 151.49C161.216 151.725 158.651 152.333 156.229 153.293L155.331 153.661L154.452 154.07C153.86 154.328 153.302 154.65 152.73 154.944C152.157 155.239 151.629 155.602 151.081 155.929C150.533 156.255 150.02 156.637 149.497 157C151.649 155.656 153.947 154.526 156.353 153.629C158.754 152.731 161.283 152.168 163.86 151.959C166.432 151.73 169.026 151.885 171.546 152.419C172.81 152.68 174.05 153.037 175.252 153.486C176.473 153.924 177.645 154.471 178.752 155.119Z" fill="black"/>
</g>
<g opacity="0.3">
<path opacity="0.3" d="M162.769 151.83C163.385 149.912 163.754 147.932 163.87 145.933C164.033 143.941 164.067 141.94 164.023 139.953C163.978 137.966 163.83 135.96 163.633 133.973L163.273 131.001C163.115 130.012 162.976 129.023 162.779 128.039L163.228 134.019L163.406 137C163.435 137.993 163.5 138.987 163.504 139.98C163.588 141.968 163.549 143.955 163.47 145.96C163.435 146.954 163.351 147.943 163.243 148.932C163.156 149.907 162.998 150.875 162.769 151.83Z" fill="black"/>
</g>
<path opacity="0.3" d="M133.796 168.349C144.102 162.171 144.512 146.232 144.161 135.716C144.097 133.908 144.018 132.266 143.959 130.854C143.851 129.441 143.851 128.022 143.959 126.608C145 119.386 150.923 118.517 150.923 118.517H150.899C144.339 119.639 142.769 124.446 143.149 129.842C143.149 129.842 143.149 129.879 143.149 129.952C143.149 130.026 143.149 130.067 143.149 130.15V130.196C143.371 133.669 144.744 161.541 133.796 168.349Z" fill="black"/>
<path opacity="0.2" d="M134.635 113.912C135.498 114.754 146.668 112.597 148.618 113.563C149.442 113.967 149.803 115.403 150.632 116.976C152.962 120.426 156.239 120.969 156.441 120.996C152.532 118.236 151.441 111.594 153.381 107.394C155.321 103.194 162.266 104.284 162.661 104.409C161.476 103.923 160.203 103.656 158.909 103.622C155.153 103.438 150.573 104.422 149.289 106.64C146.683 111.161 135.508 110.145 134.482 111.332C133.455 112.518 133.771 113.07 134.635 113.912Z" fill="black"/>
<path d="M143.381 109.896C144.06 111.064 144.331 112.401 144.156 113.719L134.694 114.713C134.21 114.191 133.853 113.578 133.646 112.916C133.439 112.254 133.387 111.558 133.495 110.876C133.495 110.876 142.868 109.998 143.381 109.896Z" fill="#263238"/>
<path d="M172.113 109.57C172.113 109.57 173.056 107.702 171.926 106.52C174.453 106.308 176.018 106.06 177.646 105.839C177.888 106.525 178.007 107.182 177.153 108.227C176.299 109.271 172.113 109.57 172.113 109.57Z" fill="#263238"/>
<path d="M177.37 121.258C179.008 123.747 180.41 127.731 180.534 134.092" stroke="#EB0029" stroke-linecap="round" stroke-linejoin="round"/>
<path d="M171.975 117.155C173.167 117.413 174.263 117.964 175.148 118.751" stroke="#EB0029" stroke-linecap="round" stroke-linejoin="round"/>
<path d="M98.3656 93.1754L104.595 93.8838C104.595 93.8838 105.681 104.551 106.688 106.626C106.688 106.626 125.844 109.082 133.697 108.866L137.68 111.387L137.818 115.775L133.914 115.881L132.655 113.121C132.655 113.121 130.02 113.015 129.413 111.631C129.413 111.631 109.057 116.231 101.559 110.987C101.564 110.968 97.0379 104.781 98.3656 93.1754Z" fill="#FFC3BD"/>
<path opacity="0.2" d="M149.087 175.249C149.264 181.035 153.332 185.617 158.174 185.488C158.825 185.47 159.469 185.366 160.089 185.18C163.969 184.03 166.762 179.766 166.609 174.775C166.456 169.945 163.598 165.952 159.842 164.843C159.092 164.618 158.305 164.514 157.517 164.535C152.675 164.669 148.904 169.48 149.087 175.249Z" fill="#FAFAFA"/>
<path d="M153.544 175.249C153.697 180.189 156.505 184.251 160.089 185.194C163.969 184.044 166.762 179.78 166.609 174.789C166.456 169.959 163.598 165.966 159.842 164.857C156.111 165.8 153.391 170.133 153.544 175.249Z" fill="#263238"/>
<path opacity="0.2" d="M73.0346 175.709C73.2172 181.495 77.2844 186.082 82.1216 185.948C82.7726 185.933 83.4178 185.829 84.0367 185.64C87.9213 184.49 90.7151 180.23 90.5571 175.235C90.409 170.409 87.5511 166.412 83.7949 165.303C83.0443 165.078 82.2582 164.974 81.4701 164.995C76.628 165.129 72.8569 169.931 73.0346 175.709Z" fill="#FAFAFA"/>
<path d="M77.4918 175.709C77.6497 180.644 80.4533 184.706 84.0368 185.649C87.9213 184.499 90.7151 180.24 90.5571 175.244C90.409 170.419 87.5511 166.421 83.7949 165.313C80.0584 166.256 77.3338 170.589 77.4918 175.709Z" fill="#263238"/>
<path d="M65.4035 160.464C65.3196 166.154 74.6139 169.922 90.1669 172.295C94.3593 172.982 98.6438 173.029 102.852 172.433C109.762 171.371 113.139 168.648 113.139 168.648C113.139 168.648 111.381 148.983 93.9923 146.489C82.1461 144.797 73.2318 149.249 68.7105 154.047C66.5832 156.301 65.4282 158.643 65.4035 160.464Z" fill="#EB0029"/>
<path opacity="0.3" d="M65.4033 160.464C65.3194 166.154 74.6137 169.922 90.1668 172.295C94.3592 172.982 98.6436 173.029 102.852 172.433C102.107 167.093 98.7602 153.086 84.2141 151.632C77.6148 150.97 72.5209 152.212 68.7104 154.047C66.583 156.301 65.428 158.643 65.4033 160.464Z" fill="black"/>
<g opacity="0.3">
<path opacity="0.3" d="M112.132 168.735C111.812 166.058 111.127 163.43 110.093 160.915C109.077 158.374 107.674 155.982 105.927 153.813C105.045 152.734 104.053 151.738 102.966 150.836C101.888 149.92 100.701 149.124 99.4268 148.463C96.8916 147.13 94.0823 146.314 91.1838 146.066C92.6041 146.288 94.0012 146.623 95.3596 147.069C96.0457 147.262 96.6923 147.561 97.334 147.814C97.9778 148.102 98.6055 148.419 99.2145 148.766C99.8365 149.098 100.409 149.498 100.996 149.87C101.584 150.243 102.127 150.685 102.645 151.149C103.699 152.042 104.659 153.026 105.513 154.089C107.247 156.216 108.66 158.555 109.713 161.039C110.26 162.277 110.731 163.542 111.125 164.83C111.544 166.112 111.88 167.416 112.132 168.735Z" fill="black"/>
</g>
<path d="M135.469 162.24L134.442 165.487L123.677 164.65L123.534 160.11L135.469 162.24Z" fill="#EB0029"/>
<path d="M71.376 140.091L47.6886 139.194" stroke="#EB0029" stroke-linecap="round" stroke-linejoin="round"/>
<path d="M39.8604 135.173L36.341 135.04" stroke="#EB0029" stroke-linecap="round" stroke-linejoin="round"/>
<path d="M60.0234 135.937L42.5602 135.275" stroke="#EB0029" stroke-linecap="round" stroke-linejoin="round"/>
<path d="M47.8022 147.363L33.1673 146.811" stroke="#EB0029" stroke-linecap="round" stroke-linejoin="round"/>
<path d="M56.8496 147.708L50.4724 147.465" stroke="#EB0029" stroke-linecap="round" stroke-linejoin="round"/>
</svg>
