<svg width="248" height="231" viewBox="0 0 248 231" fill="none" xmlns="http://www.w3.org/2000/svg">
<path d="M123.776 197.126C176.631 197.126 219.478 194.795 219.478 191.919C219.478 189.043 176.631 186.712 123.776 186.712C70.9207 186.712 28.0732 189.043 28.0732 191.919C28.0732 194.795 70.9207 197.126 123.776 197.126Z" fill="#F5F5F5"/>
<path d="M95.834 55.4876C91.9889 58.4408 88.2327 63.2018 90.4341 68.3676C92.6355 73.5334 106.723 74.0532 109.684 71.928C113.534 69.168 110.133 56.8768 107.132 56.8032C106.905 52.2446 99.0472 53.0174 95.834 55.4876Z" fill="#263238"/>
<path d="M90.4487 105.237C90.4487 105.237 91.9937 131.429 93.6966 145.611C93.8693 158.928 97.1517 189.012 97.1517 189.012H100.76C101.367 174.085 105.824 160.147 102.863 146.982C109.773 121.13 105.039 105.255 105.039 105.255L90.4487 105.237Z" fill="#FFB573"/>
<path d="M94.3774 105.255C94.3774 105.255 101.806 134.309 103.84 146.683C105.982 159.682 109.17 184.909 109.022 189.003H112.137C112.137 189.003 117.369 163.482 112.527 147.143C116.52 110.343 106.668 105.283 106.668 105.283L94.3774 105.255Z" fill="#FFB573"/>
<path d="M76.5642 71.652C76.3322 70.0834 73.2424 69.95 73.2424 69.95L71.7616 69.2554C71.5017 69.1071 71.1901 69.0587 70.8926 69.1205C70.5951 69.1823 70.335 69.3495 70.1673 69.5866L69.6737 70.3502C69.5299 70.6508 69.5062 70.9893 69.6066 71.3048C69.7071 71.6202 69.9252 71.8918 70.2216 72.0706L70.6708 72.3742C71.4349 72.8832 72.339 73.1784 73.2769 73.2252L74.6442 73.2942C74.9444 73.3103 75.2454 73.2761 75.5326 73.193C75.8728 73.0933 76.163 72.8826 76.3498 72.5995C76.5366 72.3164 76.6075 71.9799 76.5494 71.652H76.5642Z" fill="#FFB573"/>
<path d="M92.8376 80.829C92.65 81.0084 92.5513 81.0958 92.4131 81.2108L92.0231 81.5328C91.7665 81.7352 91.4999 81.9238 91.2383 82.1124C90.7053 82.4804 90.1623 82.8208 89.6046 83.1428C88.4853 83.7706 87.3093 84.3062 86.0902 84.7436C83.662 85.6239 81.0842 86.0913 78.479 86.1236H78.252C78.133 86.1212 78.0143 86.112 77.8966 86.096C77.6647 86.0644 77.4377 86.0073 77.2204 85.9258C76.8544 85.7852 76.5196 85.5824 76.2332 85.3278C75.8622 84.9882 75.5596 84.5893 75.3398 84.1502C75.0319 83.5282 74.8017 82.8753 74.6537 82.2044C74.3919 81.0497 74.2269 79.8777 74.1601 78.6992C74.0264 76.4419 74.0759 74.1784 74.3082 71.928C74.3357 71.6765 74.4614 71.4432 74.6615 71.2725C74.8615 71.1017 75.122 71.0055 75.3932 71.0021C75.6645 70.9987 75.9276 71.0883 76.1325 71.254C76.3374 71.4196 76.4699 71.6497 76.5046 71.9004V71.928C76.7712 74.0716 77.0772 76.2474 77.4918 78.3312C77.6746 79.3404 77.9269 80.3376 78.247 81.3166C78.3745 81.717 78.55 82.1028 78.7702 82.4666C78.8591 82.6 78.9479 82.6644 78.9084 82.6184C78.8431 82.5525 78.7619 82.5021 78.6715 82.4712C78.5915 82.4373 78.5067 82.4141 78.4198 82.4022H78.2865C79.3476 82.3119 80.4002 82.1489 81.4356 81.9146C82.4617 81.6758 83.4679 81.3683 84.4465 80.9946C85.4211 80.6059 86.3603 80.1444 87.2551 79.6146C87.7042 79.357 88.1386 79.0856 88.5581 78.7958C88.7654 78.6532 88.9629 78.506 89.1603 78.3588L89.4466 78.138L89.6638 77.9586L89.7921 77.8528C90.2226 77.4935 90.7866 77.3051 91.3639 77.3278C91.9413 77.3504 92.4863 77.5823 92.8828 77.9741C93.2793 78.3658 93.496 78.8864 93.4866 79.4248C93.4773 79.9633 93.2426 80.477 92.8326 80.8566L92.8376 80.829Z" fill="#FFB573"/>
<path d="M95.2662 75.723C91.3619 75.1158 87.2651 77.5906 85.1426 79.6054C84.0469 82.6782 87.5563 86.4134 87.5563 86.4134C87.5563 86.4134 92.5564 83.5522 94.358 81.5972C96.1596 79.6422 97.517 76.0726 95.2662 75.723Z" fill="#E0E0E0"/>
<path d="M107.359 104.905C107.359 104.905 112.868 108.549 113.904 120.66C114.319 125.431 115.064 144.461 116.634 152.649C110.982 156.412 94.0618 155.896 91.4113 153.698C92.1615 137.138 85.3697 115.173 90.2957 105.071C98.4499 104.137 107.359 104.905 107.359 104.905Z" fill="#263238"/>
<path opacity="0.2" d="M101.772 139.64C101.846 132.68 100.745 123.103 97.4033 117.427C98.5435 124.511 101.772 139.64 101.772 139.64Z" fill="black"/>
<path d="M87.7094 81.335C87.7094 85.2772 84.3381 87.3472 88.1536 90.3832C88.3806 93.7872 88.6472 99.8822 89.7676 105.434C90.9276 106.939 99.4075 106.814 108.218 105.034C107.068 100.273 107.492 92.5176 110.508 81.91C110.669 81.3213 110.697 80.7081 110.592 80.1086C110.486 79.5092 110.249 78.9366 109.895 78.4266C109.541 77.9166 109.078 77.4802 108.535 77.1448C107.991 76.8094 107.379 76.5822 106.737 76.4774C106.012 76.3578 105.257 76.2474 104.457 76.1554C101.701 75.7768 98.9202 75.5831 96.135 75.5758C95.2366 75.5758 94.3037 75.631 93.4153 75.6862C91.8718 75.7751 90.4226 76.4087 89.3626 77.4581C88.3026 78.5075 87.7114 79.8938 87.7094 81.335Z" fill="#E0E0E0"/>
<path d="M105.709 88.1796L95.3682 90.362C94.9747 90.445 94.728 90.8096 94.8171 91.1763L98.1651 104.954C98.2542 105.321 98.6454 105.551 99.0389 105.468L109.379 103.285C109.773 103.202 110.02 102.838 109.931 102.471L106.583 88.6932C106.493 88.3265 106.102 88.0966 105.709 88.1796Z" fill="#EB0029"/>
<path d="M97.1566 80.6588C97.1566 80.6588 95.4834 82.5264 94.1013 82.9588L93.9434 83.8788C95.691 83.6708 97.304 82.8956 98.4992 81.6892L97.1566 80.6588Z" fill="#EB0029"/>
<path d="M92.6106 79.5318C92.6106 79.5318 92.5415 81.9606 93.2622 83.1474L92.7242 83.9386C91.5606 82.7045 90.9001 81.1282 90.8584 79.4858L92.6106 79.5318Z" fill="#EB0029"/>
<path d="M104.116 67.4062C103.455 69.8534 102.68 74.366 104.457 76.1462C104.457 76.1462 97.8377 77.8298 93.5238 83.3498C91.5494 77.5492 96.1546 75.5666 96.1546 75.5666C99.1704 75.1066 99.2099 73.055 98.7953 71.0862L104.116 67.4062Z" fill="#FFB573"/>
<path opacity="0.2" d="M101.949 68.9104L98.8003 71.0954C98.9021 71.5498 98.9615 72.0115 98.978 72.4754C100.123 72.4018 101.752 71.3484 101.94 70.249C102.026 69.8067 102.029 69.3538 101.949 68.9104Z" fill="black"/>
<path d="M107.187 63.0454C105.918 67.0106 105.474 68.7172 102.803 70.2766C98.7856 72.618 93.9188 70.2076 93.8892 65.948C93.8892 62.1116 95.9474 56.288 100.523 55.6532C105.099 55.0184 108.475 59.0756 107.187 63.0454Z" fill="#FFB573"/>
<path d="M103.869 57.254C102.67 61.0766 103.697 65.074 106.145 65.534C109.546 64.3518 109.378 60.8328 108.509 59.2228C107.64 57.6128 104.56 55.0506 103.869 57.254Z" fill="#263238"/>
<path d="M105.73 64.1218C103.839 64.706 103.474 65.8882 103.474 65.8882C103.474 65.8882 104.772 65.0326 106.016 65.1936C105.836 64.8609 105.738 64.4946 105.73 64.1218Z" fill="#263238"/>
<path d="M101.007 62.6728C100.923 62.9994 100.671 63.2202 100.439 63.1696C100.207 63.119 100.084 62.8016 100.167 62.475C100.251 62.1484 100.503 61.923 100.735 61.9782C100.967 62.0334 101.071 62.3462 101.007 62.6728Z" fill="#263238"/>
<path d="M96.6282 61.7022C96.5443 62.0288 96.2925 62.2496 96.0605 62.1944C95.8285 62.1392 95.7051 61.831 95.7891 61.4998C95.873 61.1686 96.1247 60.9524 96.3567 61.0076C96.5887 61.0628 96.717 61.371 96.6282 61.7022Z" fill="#263238"/>
<path d="M96.4656 61.049L95.6709 60.6212C95.6709 60.6212 95.9522 61.3388 96.4656 61.049Z" fill="#263238"/>
<path d="M97.4577 62.2358C96.9559 62.9094 96.3543 63.5134 95.6709 64.0298C95.821 64.1919 96.0066 64.3221 96.2151 64.4118C96.4237 64.5014 96.6505 64.5484 96.8802 64.5496L97.4577 62.2358Z" fill="#ED893E"/>
<path d="M107.211 67.0244C106.95 67.3104 106.625 67.5406 106.26 67.6993C105.894 67.8581 105.497 67.9416 105.093 67.9444C104.062 67.9168 103.884 66.8128 104.452 65.9066C104.945 65.0878 106.11 64.1172 107.009 64.5818C107.907 65.0464 107.912 66.2792 107.211 67.0244Z" fill="#FFB573"/>
<path d="M101.831 61.2652C101.778 61.2407 101.737 61.1978 101.717 61.1456C101.638 60.9051 101.501 60.6846 101.316 60.5012C101.131 60.3178 100.904 60.1763 100.651 60.0876C100.597 60.0736 100.55 60.0402 100.521 59.9947C100.493 59.9491 100.484 59.895 100.498 59.8438C100.504 59.8185 100.516 59.7948 100.533 59.7739C100.549 59.7531 100.57 59.7357 100.594 59.7227C100.618 59.7098 100.645 59.7016 100.673 59.6987C100.7 59.6958 100.728 59.6982 100.755 59.7058C101.078 59.8106 101.37 59.9847 101.607 60.214C101.845 60.4433 102.021 60.7215 102.122 61.026C102.132 61.0504 102.136 61.0765 102.135 61.1025C102.134 61.1286 102.126 61.1541 102.114 61.1775C102.101 61.2008 102.084 61.2215 102.062 61.2382C102.041 61.2549 102.016 61.2672 101.989 61.2744C101.937 61.29 101.88 61.2867 101.831 61.2652Z" fill="#263238"/>
<path d="M95.0393 59.7426C94.9833 59.7443 94.9287 59.7263 94.8863 59.692C94.8474 59.6543 94.8257 59.604 94.8257 59.5517C94.8257 59.4994 94.8474 59.4491 94.8863 59.4114C95.1064 59.1743 95.3847 58.9902 95.6975 58.8748C96.0103 58.7595 96.3484 58.7163 96.683 58.749C96.7394 58.758 96.7898 58.787 96.8238 58.8298C96.8578 58.8727 96.8728 58.9261 96.8656 58.979C96.8571 59.0308 96.8269 59.0774 96.7815 59.1085C96.7361 59.1395 96.6794 59.1525 96.6238 59.1446C96.3589 59.12 96.0917 59.1557 95.8449 59.2487C95.5981 59.3416 95.3793 59.489 95.2072 59.6782C95.1858 59.6996 95.1598 59.7164 95.1308 59.7275C95.1019 59.7386 95.0706 59.7438 95.0393 59.7426Z" fill="#263238"/>
<path d="M100.834 62.0242L100.04 61.5918C100.04 61.5918 100.321 62.314 100.834 62.0242Z" fill="#263238"/>
<path d="M100.577 94.6842L96.6284 93.9712L97.0726 98.1986C97.0726 98.1986 100.034 98.079 101.722 96.8186L101.88 96.2666C101.698 95.3512 101.475 95.0154 100.577 94.6842Z" fill="#FFB573"/>
<path d="M94.2543 95.7744L94.7133 97.5638C94.7805 97.8208 94.9484 98.045 95.1841 98.1923C95.4199 98.3396 95.7062 98.3993 95.9868 98.3596L97.0925 98.1986L96.6482 93.9712L94.9651 94.5416C94.7052 94.6304 94.4893 94.8049 94.3583 95.0321C94.2273 95.2593 94.1903 95.5235 94.2543 95.7744Z" fill="#FFB573"/>
<path d="M109.408 79.5686C110.607 81.71 111.654 83.9228 112.542 86.1926C112.986 87.3288 113.406 88.4926 113.741 89.684C114.107 90.9184 114.355 92.1807 114.482 93.456C114.511 93.7918 114.526 94.1368 114.531 94.4864V94.6106V94.8084C114.519 94.9439 114.493 95.078 114.452 95.2086C114.38 95.4622 114.266 95.7041 114.116 95.9262C113.888 96.2568 113.589 96.5402 113.238 96.7588C112.809 97.0249 112.335 97.2223 111.836 97.343C111.458 97.4403 111.074 97.5156 110.686 97.5684C109.341 97.7261 107.983 97.7738 106.629 97.711C104.061 97.6006 101.506 97.3146 98.9829 96.8554C98.7097 96.8132 98.4635 96.6766 98.2936 96.4728C98.1236 96.2689 98.0424 96.0129 98.066 95.7557C98.0897 95.4985 98.2166 95.2591 98.4213 95.0852C98.626 94.9113 98.8935 94.8158 99.1705 94.8176C101.638 94.7762 104.136 94.7164 106.54 94.5462C107.691 94.4719 108.834 94.3181 109.96 94.0862C110.19 94.0366 110.416 93.9721 110.637 93.893C110.746 93.8648 110.847 93.8146 110.933 93.7458C110.838 93.798 110.76 93.8726 110.706 93.962C110.64 94.0589 110.59 94.1643 110.558 94.2748C110.54 94.3368 110.527 94.3998 110.518 94.4634C110.516 94.494 110.516 94.5248 110.518 94.5554C110.518 94.3208 110.474 94.0954 110.434 93.8378C110.003 91.7058 109.329 89.6226 108.425 87.6232C107.532 85.5486 106.51 83.4372 105.464 81.4454V81.4086C105.252 80.9272 105.242 80.3891 105.436 79.9013C105.631 79.4134 106.015 79.0118 106.513 78.7763C107.011 78.5408 107.586 78.4887 108.123 78.6304C108.661 78.7721 109.121 79.0972 109.413 79.541L109.408 79.5686Z" fill="#FFB573"/>
<path d="M106.994 76.62C109.822 77.1076 111.081 79.4766 113.134 84.2054C112.507 87.3886 107.487 89.063 107.487 89.063C107.487 89.063 104.605 84.302 104.032 81.7766C103.46 79.2512 104.141 76.1278 106.994 76.62Z" fill="#E0E0E0"/>
<path d="M101.016 189.049C100.993 188.987 100.948 188.935 100.889 188.901C100.83 188.867 100.76 188.852 100.691 188.86L97.3442 188.814C97.0017 188.793 96.6597 188.861 96.357 189.012C94.825 189.904 93.1042 190.476 91.3125 190.691C90.6017 190.792 90.9225 191.91 92.6007 191.928C95.3698 191.956 95.8733 191.763 98.2376 191.786C100.256 191.809 99.2938 191.891 100.898 191.928C101.283 191.928 101.599 191.703 101.55 191.468L101.016 189.049Z" fill="#263238"/>
<path d="M112.562 189.049C112.538 188.988 112.493 188.936 112.434 188.902C112.375 188.868 112.305 188.853 112.236 188.86L109.506 188.814C109.164 188.791 108.821 188.86 108.519 189.012C107.532 189.651 107.67 190.392 105.419 190.691C104.709 190.792 105.059 191.91 106.737 191.928C109.506 191.956 109.338 191.786 110.464 191.786C111.589 191.786 110.898 191.891 112.507 191.928C112.892 191.928 113.203 191.703 113.144 191.468L112.562 189.049Z" fill="#263238"/>
<path d="M95.3354 81.3672C96.7372 81.4224 99.3089 82.4942 100.133 83.6396C101.298 82.5126 105.849 79.8952 105.928 76.3486C105.371 75.8494 104.669 75.5136 103.909 75.3826C103.909 75.3826 97.838 78.1196 95.3354 81.3672Z" fill="#FAFAFA"/>
<path d="M93.0648 81.1832C93.0648 81.1832 92.6847 78.3174 96.4064 75.5344C96.0313 75.2492 94.5604 75.5712 94.5604 75.5712C94.5604 75.5712 90.2119 77.3146 90.3402 81.8272C91.1238 81.2902 92.1013 81.0592 93.0648 81.1832Z" fill="#FAFAFA"/>
<path d="M92.5117 82.3976C91.9737 82.6322 91.7615 84.2652 92.5117 84.647C93.262 85.0288 93.1879 83.4694 93.6223 82.9358C94.0567 82.4022 93.4545 81.9882 92.5117 82.3976Z" fill="#EB0029"/>
<path d="M93.1732 83.0324C92.7882 83.4924 93.2868 85.0564 94.116 85.0518C94.9453 85.0472 94.2295 83.6718 94.3924 82.991C94.5553 82.3102 93.8297 82.2228 93.1732 83.0324Z" fill="#EB0029"/>
<path d="M93.2867 84.1962C92.3637 82.8668 92.2996 89.8726 94.5355 92.6326C94.3875 89.914 95.9521 86.0592 93.2867 84.1962Z" fill="#EB0029"/>
<path d="M93.203 84.1364C92.7933 82.784 90.735 88.7088 91.8753 91.6022C92.5219 89.2608 94.9355 86.372 93.203 84.1364Z" fill="#EB0029"/>
<path d="M100.084 65.8146C100.299 65.7273 100.505 65.6226 100.701 65.5018C100.712 65.4915 100.721 65.4793 100.727 65.4659C100.733 65.4525 100.736 65.4381 100.736 65.4236C100.736 65.409 100.733 65.3947 100.727 65.3812C100.721 65.3678 100.712 65.3556 100.701 65.3454C100.68 65.3209 100.651 65.3045 100.618 65.2994C100.585 65.2942 100.551 65.3008 100.523 65.3178C100.083 65.5929 99.5822 65.7724 99.0577 65.8433C98.5332 65.9141 97.9984 65.8745 97.4925 65.7272C97.4776 65.7211 97.4615 65.7178 97.4453 65.7175C97.429 65.7172 97.4128 65.7199 97.3977 65.7255C97.3826 65.731 97.3688 65.7393 97.3571 65.7499C97.3454 65.7604 97.336 65.773 97.3296 65.787C97.3185 65.8156 97.32 65.8473 97.3339 65.8749C97.3478 65.9025 97.3729 65.9238 97.4037 65.9342C98.2823 66.2036 99.2368 66.161 100.084 65.8146Z" fill="#263238"/>
<path d="M85.7596 69.0576H60.542V69.8212H85.7596V69.0576Z" fill="#EB0029"/>
<path d="M85.1572 69.8212H61.144L62.2003 70.3548H84.101L85.1572 69.8212Z" fill="#EB0029"/>
<path opacity="0.2" d="M85.1572 69.8212H61.144L62.2003 70.3548H84.101L85.1572 69.8212Z" fill="black"/>
<path d="M68.6222 48.6014C68.4747 48.6002 68.3336 48.5451 68.2292 48.4478C68.1249 48.3506 68.0657 48.2191 68.0645 48.0816V46.3382C68.0657 46.2007 68.1249 46.0692 68.2292 45.972C68.3336 45.8748 68.4747 45.8196 68.6222 45.8184C68.7697 45.8196 68.9108 45.8748 69.0152 45.972C69.1195 46.0692 69.1787 46.2007 69.1799 46.3382V48.0816C69.1787 48.2191 69.1195 48.3506 69.0152 48.4478C68.9108 48.5451 68.7697 48.6002 68.6222 48.6014Z" fill="#263238"/>
<path d="M69.5205 46.2324V46.0024C69.5205 45.7788 69.326 45.5976 69.0861 45.5976H68.1582C67.9183 45.5976 67.7238 45.7788 67.7238 46.0024V46.2324C67.7238 46.456 67.9183 46.6372 68.1582 46.6372H69.0861C69.326 46.6372 69.5205 46.456 69.5205 46.2324Z" fill="#263238"/>
<path d="M69.5153 52.3872V47.4146C69.5153 47.3605 69.4926 47.3085 69.452 47.2698C69.4114 47.2311 69.3562 47.2088 69.2981 47.2076H67.9457C67.8876 47.2088 67.8324 47.2311 67.7918 47.2698C67.7512 47.3085 67.7285 47.3605 67.7285 47.4146V52.3872C67.7287 52.7609 67.6439 53.1304 67.4797 53.4713C67.3155 53.8123 67.0756 54.1169 66.7759 54.3652C66.4772 54.6153 66.2382 54.9209 66.0741 55.2624C65.91 55.6039 65.8246 55.9736 65.8232 56.3478V69.1036H71.4156V56.3478C71.4152 55.9735 71.3302 55.6035 71.1661 55.2619C71.0019 54.9202 70.7624 54.6147 70.463 54.3652C70.1647 54.1161 69.9261 53.8112 69.7628 53.4704C69.5995 53.1295 69.5151 52.7605 69.5153 52.3872Z" fill="#EB0029"/>
<path d="M71.4157 57.8566H67.7236V66.1044H71.4157V57.8566Z" fill="#E0E0E0"/>
<path d="M76.6576 69.0576H75.9912C76.2131 69.0715 76.4357 69.0715 76.6576 69.0576Z" fill="#EB0029"/>
<path d="M80.6805 69.0576H80.0093C80.2328 69.0715 80.457 69.0715 80.6805 69.0576Z" fill="#EB0029"/>
<path opacity="0.2" d="M75.7642 59.3286V61.4216C75.7642 63.0868 76.781 64.4714 78.0692 64.6416V68.3216C78.0692 68.8874 77.4769 69.0484 77.0179 69.0852H79.6487C79.1897 69.0484 78.5974 68.8874 78.5974 68.3216V64.6416C79.8856 64.476 80.9024 63.0914 80.9024 61.4216V59.3286H75.7642Z" fill="#EB0029"/>
<path d="M106.347 57.3598C104.373 58.1418 97.7588 58.381 95.1675 57.8566C97.8477 54.3284 103.87 53.2934 106.347 57.3598Z" fill="#263238"/>
<path d="M112.571 69.9638C112.552 69.9635 112.533 69.9592 112.516 69.9512C112.499 69.9432 112.484 69.9318 112.473 69.9178C112.408 69.835 110.952 67.8386 110.923 62.4934C110.923 60.2624 110.187 58.4684 108.948 57.5622C108.626 57.3143 108.247 57.1403 107.839 57.054C107.432 56.9677 107.009 56.9716 106.604 57.0654C106.588 57.0687 106.571 57.0691 106.555 57.0665C106.539 57.0639 106.524 57.0584 106.51 57.0503C106.497 57.0422 106.485 57.0316 106.475 57.0192C106.466 57.0068 106.459 56.9928 106.456 56.978C106.452 56.9632 106.452 56.9479 106.454 56.933C106.457 56.918 106.463 56.9037 106.472 56.8909C106.481 56.8781 106.492 56.867 106.505 56.8583C106.519 56.8495 106.534 56.8433 106.549 56.84C106.99 56.7423 107.448 56.74 107.89 56.8333C108.332 56.9266 108.744 57.113 109.096 57.3782C110.404 58.3304 111.16 60.1934 111.174 62.4888C111.204 67.7512 112.655 69.766 112.655 69.7844C112.665 69.7968 112.671 69.8107 112.675 69.8256C112.679 69.8404 112.679 69.8557 112.676 69.8707C112.674 69.8856 112.668 69.8999 112.659 69.9128C112.65 69.9256 112.639 69.9367 112.626 69.9454C112.609 69.955 112.591 69.9613 112.571 69.9638Z" fill="#263238"/>
<path d="M148.09 42.8836C149.467 44.6408 149.462 47.3778 148.993 48.8636C146.525 47.8194 146.91 44.8202 146.91 44.8202L148.09 42.8836Z" fill="#263238"/>
<path d="M155.47 64.6324L156.891 66.0906L158.372 67.5718C159.359 68.5516 160.346 69.5084 161.363 70.4284C161.857 70.8884 162.35 71.3484 162.878 71.7532C163.407 72.158 163.866 72.5904 164.384 72.963C164.902 73.3356 165.371 73.6668 165.83 73.952C166.176 74.168 166.539 74.3587 166.916 74.5224L166.161 74.412C165.937 74.3868 165.71 74.4339 165.519 74.5454C165.519 74.5454 165.638 74.5454 165.805 74.4534C166.264 74.1918 166.689 73.8832 167.074 73.5334C168.085 72.6384 169.03 71.681 169.902 70.6676C170.845 69.6142 171.763 68.4918 172.676 67.3556C173.589 66.2194 174.503 65.0556 175.401 63.9102L175.445 63.8596C175.76 63.4727 176.21 63.2009 176.718 63.0916C177.225 62.9822 177.758 63.0421 178.223 63.261C178.688 63.4798 179.056 63.8437 179.263 64.2893C179.469 64.7349 179.502 65.234 179.355 65.6996C178.855 67.1534 178.276 68.5828 177.622 69.9822C176.975 71.3622 176.26 72.7422 175.45 74.1222C174.61 75.5575 173.639 76.9226 172.548 78.2024C171.897 78.959 171.162 79.6497 170.356 80.2632C169.822 80.6657 169.237 81.0056 168.614 81.2752C167.699 81.6727 166.696 81.8649 165.687 81.8364C165.501 81.8299 165.316 81.8068 165.134 81.7674L164.927 81.726C163.846 81.4845 162.8 81.1215 161.812 80.645C160.985 80.2524 160.186 79.8114 159.418 79.3248C158.011 78.442 156.669 77.4723 155.401 76.4222C154.157 75.4148 153.002 74.3614 151.881 73.2896C151.328 72.7468 150.776 72.204 150.247 71.6428C149.719 71.0816 149.211 70.5342 148.653 69.8948C148.031 69.0523 147.765 68.0248 147.907 67.0104C148.049 65.9961 148.589 65.0668 149.423 64.4016C150.257 63.7364 151.326 63.3825 152.423 63.4082C153.521 63.4338 154.569 63.8371 155.366 64.5404L155.47 64.6324Z" fill="#E0E0E0"/>
<path d="M177.612 66.3942L182.01 66.592L180.583 61.072C180.583 61.072 176.491 61.3526 175.835 63.3122C175.766 63.5307 175.78 63.7646 175.874 63.9746L176.684 65.7824C176.76 65.9559 176.888 66.1055 177.053 66.2139C177.217 66.3222 177.411 66.3847 177.612 66.3942Z" fill="#FF8B7B"/>
<path d="M185.934 63.3168L185.085 61.4768C184.919 61.1202 184.624 60.8294 184.251 60.656C183.878 60.4826 183.451 60.4377 183.046 60.5292L180.578 61.095L182.005 66.615L184.966 65.5018C185.186 65.4208 185.387 65.2992 185.555 65.1444C185.724 64.9896 185.857 64.8047 185.948 64.6008C186.038 64.3969 186.083 64.1781 186.081 63.9575C186.078 63.7369 186.028 63.519 185.934 63.3168Z" fill="#FF8B7B"/>
<path d="M145.069 142.837C140.4 123.696 137.512 100.618 137.512 100.618L156.659 100.333C156.659 100.333 156.392 131.434 156.432 144.461C156.481 158.008 157.488 187.82 157.488 187.82H151.678C151.678 187.82 144.181 159.581 145.069 142.837Z" fill="#263238"/>
<path d="M143.578 116.428L140.548 120.614C141.451 125.84 142.522 131.595 143.771 137.234C144.294 128.568 144.205 118.498 143.578 116.428Z" fill="black"/>
<path d="M165.238 190.475C165.238 190.475 157.236 188.717 156.634 187.535H152.192L152.222 191.919H154.966L155.385 191.514L156.081 191.919C158.303 191.919 164.206 191.836 165.603 191.372C165.63 191.205 165.611 191.035 165.547 190.878C165.483 190.721 165.377 190.582 165.238 190.475Z" fill="#263238"/>
<path d="M127.261 142.299C129.477 123.048 129.408 110.186 132.108 100.701L149.541 100.457C149.541 100.457 142.281 130.992 138.909 143.697C135.538 156.402 129.768 187.811 129.768 187.811H124.388C124.388 187.811 122.695 157.184 127.261 142.299Z" fill="#263238"/>
<path d="M130.726 104.45C130.341 106.75 128.969 120.357 127.547 125.311C139.171 130.118 156.941 128.227 157.489 125.109C157.326 119.331 156.995 104.45 156.995 104.45H130.726Z" fill="#E0E0E0"/>
<path opacity="0.1" d="M131.373 106.975C132.184 108.201 133.165 109.322 134.29 110.31C134.29 110.31 131.782 109.892 131.373 106.975Z" fill="black"/>
<path opacity="0.1" d="M154.739 110.182C155.405 109.255 155.946 108.256 156.348 107.205C156.348 107.205 156.461 109.556 154.739 110.182Z" fill="black"/>
<path opacity="0.1" d="M131.481 108.71C131.749 109.631 132.146 110.516 132.661 111.341C132.191 111.075 131.824 110.677 131.612 110.204C131.4 109.731 131.354 109.208 131.481 108.71Z" fill="black"/>
<path d="M134.783 190.475C134.783 190.475 129.793 188.717 129.22 187.535H124.778L124.689 191.919H128.327L128.756 191.514L129.442 191.919C131.663 191.919 133.712 191.836 135.123 191.372C135.157 191.207 135.143 191.038 135.083 190.88C135.024 190.723 134.92 190.583 134.783 190.475Z" fill="#263238"/>
<path d="M131.466 62.2956C137.626 61.5826 146.422 61.6516 152.32 62.5992C153.794 62.8482 155.147 63.5228 156.186 64.5274C157.226 65.532 157.901 66.8159 158.115 68.1974C159.354 76.5004 158.288 91.0088 157.498 105.614C144.023 109.91 129.808 105.554 129.808 105.554C129.314 102.61 130.42 92.9546 131.16 87.8026C130.049 82.4804 127.705 76.3854 126.135 69.3152C125.945 68.5243 125.935 67.7049 126.105 66.9101C126.276 66.1152 126.624 65.3626 127.126 64.701C127.629 64.0393 128.275 63.4833 129.022 63.069C129.77 62.6547 130.602 62.3912 131.466 62.2956Z" fill="#263238"/>
<path opacity="0.1" d="M131.466 62.2956C137.626 61.5826 146.422 61.6516 152.32 62.5992C153.794 62.8482 155.147 63.5228 156.186 64.5274C157.226 65.532 157.901 66.8159 158.115 68.1974C159.354 76.5004 158.288 91.0088 157.498 105.614C144.023 109.91 129.808 105.554 129.808 105.554C129.314 102.61 130.42 92.9546 131.16 87.8026C130.049 82.4804 127.705 76.3854 126.135 69.3152C125.945 68.5243 125.935 67.7049 126.105 66.9101C126.276 66.1152 126.624 65.3626 127.126 64.701C127.629 64.0393 128.275 63.4833 129.022 63.069C129.77 62.6547 130.602 62.3912 131.466 62.2956Z" fill="white"/>
<path d="M137.562 51.3338L144.571 56.6928C143.663 58.9422 143.377 61.2928 147.335 62.1806C148.322 63.3996 146.842 65.5386 145.084 66.3712C140.928 65.488 138.534 64.4484 136.92 62.383C137.429 60.7638 138.238 54.6596 137.562 51.3338Z" fill="#FF8B7B"/>
<path opacity="0.2" d="M140.484 53.5694L144.571 56.6882C144.349 57.2083 144.184 57.7476 144.077 58.2982C142.493 58.404 140.291 56.9182 140.193 55.5658C140.157 54.8893 140.256 54.2124 140.484 53.5694Z" fill="black"/>
<path d="M136.555 47.6814C137.197 51.78 137.345 54.2088 139.768 56.1316C143.416 59.025 148.707 56.6698 149.398 52.4516C150.015 48.6658 148.865 42.5984 144.388 41.3288C143.395 41.0472 142.341 41.0055 141.326 41.2075C140.311 41.4096 139.368 41.8488 138.584 42.4839C137.801 43.119 137.204 43.9291 136.849 44.8383C136.494 45.7475 136.393 46.7258 136.555 47.6814Z" fill="#FF8B7B"/>
<path d="M136.516 49.572C136.968 50.0284 137.551 50.3533 138.197 50.5075C138.842 50.6618 139.522 50.6388 140.153 50.4414C139.097 49.4432 140.124 45.7908 139.068 44.305C141.111 44.6822 149.068 45.7586 149.828 43.1872C150.652 40.4272 147.36 38.2238 145.514 38.0168C146.057 39.1668 146.007 39.9994 143.984 39.6268C141.96 39.2542 133.618 37.4602 134.541 41.1034C131.856 41.1034 131.674 44.7466 133.638 46.49C134.714 47.4172 135.679 48.4506 136.516 49.572Z" fill="#263238"/>
<path d="M135.035 40.9286C133.426 40.556 133.929 39.176 134.289 39.0334C132.784 39.3738 132.236 40.7538 134.053 41.3886C135.869 42.0234 135.035 40.9286 135.035 40.9286Z" fill="#263238"/>
<path d="M135.316 50.1976C135.466 50.6467 135.71 51.0637 136.033 51.4245C136.357 51.7853 136.754 52.0828 137.202 52.2998C138.411 52.8748 139.29 51.9272 139.176 50.7404C139.082 49.6686 138.347 48.0816 137.024 47.9804C136.733 47.9669 136.443 48.0215 136.181 48.1394C135.918 48.2573 135.692 48.4347 135.522 48.6552C135.352 48.8758 135.244 49.1326 135.208 49.402C135.172 49.6714 135.209 49.945 135.316 50.1976Z" fill="#FF8B7B"/>
<path d="M142.73 47.8286C142.76 48.1644 142.977 48.422 143.224 48.4036C143.471 48.3852 143.628 48.0908 143.599 47.7596C143.569 47.4284 143.352 47.1662 143.105 47.1846C142.858 47.203 142.701 47.4928 142.73 47.8286Z" fill="#263238"/>
<path d="M147.034 47.732C147.064 48.0678 147.281 48.3254 147.528 48.3024C147.774 48.2794 147.927 47.9942 147.898 47.6584C147.868 47.3226 147.651 47.0696 147.404 47.088C147.157 47.1064 147.004 47.3962 147.034 47.732Z" fill="#263238"/>
<path d="M146.16 48.1828C146.679 49.1716 147.344 50.0881 148.134 50.906C147.547 51.5132 146.442 51.366 146.442 51.366L146.16 48.1828Z" fill="#FF5652"/>
<path d="M142.064 46.7614C142.03 46.7703 141.994 46.7703 141.96 46.7614C141.934 46.7523 141.91 46.7383 141.889 46.7203C141.869 46.7022 141.853 46.6805 141.841 46.6564C141.83 46.6323 141.825 46.6063 141.825 46.5801C141.825 46.5539 141.83 46.5279 141.842 46.5038C141.96 46.2085 142.152 45.9436 142.402 45.7309C142.651 45.5181 142.952 45.3637 143.278 45.2802C143.334 45.2699 143.391 45.2805 143.439 45.3099C143.486 45.3392 143.519 45.3848 143.53 45.4366C143.541 45.4885 143.529 45.5423 143.498 45.5863C143.466 45.6303 143.418 45.6609 143.362 45.6712C143.104 45.7394 142.866 45.8637 142.67 46.0341C142.473 46.2045 142.323 46.4159 142.232 46.651C142.216 46.6812 142.192 46.7071 142.163 46.7264C142.134 46.7457 142.099 46.7578 142.064 46.7614Z" fill="#263238"/>
<path d="M149.532 46.2278C149.496 46.228 149.461 46.2196 149.43 46.2035C149.399 46.1874 149.373 46.1641 149.354 46.1358C149.223 45.9208 149.038 45.7381 148.816 45.6029C148.593 45.4677 148.34 45.3839 148.076 45.3584C148.048 45.3578 148.02 45.3521 147.995 45.3416C147.969 45.3311 147.946 45.3161 147.927 45.2973C147.908 45.2785 147.893 45.2563 147.882 45.2321C147.872 45.2078 147.868 45.182 147.868 45.156C147.871 45.1032 147.895 45.0533 147.937 45.0172C147.979 44.9811 148.034 44.9616 148.09 44.9628C148.425 44.9913 148.747 45.0938 149.03 45.2618C149.314 45.4298 149.55 45.6585 149.719 45.9288C149.747 45.9737 149.756 46.0269 149.743 46.0774C149.73 46.1279 149.697 46.1719 149.65 46.2002C149.615 46.2222 149.573 46.232 149.532 46.2278Z" fill="#263238"/>
<path d="M136.92 62.383C136.92 62.383 144.112 72.5674 146.847 79.7526C149.542 71.3208 149.853 64.5726 147.34 62.1806C146.531 63.1328 143.273 64.4208 136.92 62.383Z" fill="#E0E0E0"/>
<path d="M134.467 69.9086L133.771 71.7486L133.08 73.6622C132.621 74.9364 132.202 76.2152 131.812 77.471C131.614 78.1012 131.441 78.7268 131.283 79.3432C131.126 79.9596 130.972 80.5714 130.864 81.1556C130.755 81.7398 130.671 82.3056 130.617 82.8116C130.589 83.1991 130.589 83.5879 130.617 83.9754L130.36 83.3038C130.153 82.9404 129.941 82.8438 129.931 82.8438C129.921 82.8438 130 82.9358 130.153 83.037C130.613 83.2895 131.101 83.4932 131.609 83.6442C132.922 84.0552 134.262 84.3841 135.622 84.6286C137.068 84.8954 138.559 85.0886 140.064 85.3186C141.57 85.5486 143.12 85.7096 144.61 85.9074H144.68C145.2 85.9768 145.677 86.2158 146.027 86.5818C146.377 86.9479 146.576 87.4175 146.589 87.9074C146.603 88.3973 146.43 88.8759 146.101 89.2583C145.773 89.6408 145.309 89.9024 144.793 89.9968C143.185 90.2813 141.562 90.4901 139.931 90.6224C138.302 90.7604 136.659 90.8294 134.995 90.8202C133.241 90.8172 131.491 90.6741 129.763 90.3924C128.749 90.216 127.756 89.9431 126.802 89.5782C126.166 89.3338 125.565 89.0154 125.015 88.6306C124.204 88.0722 123.544 87.3443 123.09 86.5054C123.006 86.3492 122.938 86.1859 122.887 86.0178L122.833 85.8292C122.545 84.8278 122.387 83.7976 122.364 82.761C122.34 81.8966 122.375 81.0316 122.468 80.1712C122.626 78.5995 122.898 77.0396 123.282 75.5022C123.633 74.0026 124.077 72.5536 124.556 71.123C124.803 70.41 125.049 69.7016 125.326 68.9978C125.602 68.294 125.879 67.6178 126.219 66.8588C126.665 65.8673 127.506 65.0761 128.567 64.6525C129.627 64.229 130.822 64.2063 131.9 64.5893C132.977 64.9723 133.853 65.7309 134.341 66.7047C134.83 67.6786 134.893 68.7912 134.516 69.8074L134.467 69.9086Z" fill="#E0E0E0"/>
<path d="M145.311 86.5008L149.675 87.0068L147.266 92.2094C147.266 92.2094 143.283 91.2894 142.996 89.247C142.968 89.0212 143.026 88.7933 143.159 88.603L144.285 86.9516C144.393 86.794 144.547 86.6681 144.728 86.5883C144.91 86.5086 145.112 86.4782 145.311 86.5008Z" fill="#FF8B7B"/>
<path d="M152.947 90.857L151.773 92.5498C151.545 92.8752 151.201 93.1147 150.801 93.2259C150.402 93.337 149.973 93.3126 149.591 93.157L147.266 92.2094L149.675 87.0068L152.395 88.5754C152.593 88.6899 152.766 88.8401 152.902 89.0174C153.037 89.1948 153.134 89.3955 153.185 89.608C153.237 89.8205 153.242 90.0404 153.201 90.2548C153.16 90.4693 153.074 90.674 152.947 90.857Z" fill="#FF8B7B"/>
<path d="M137.271 60.8006C136.354 60.9363 135.513 61.358 134.887 61.9966C136.841 64.4274 139.627 66.1637 142.784 66.9186C142.557 66.2148 143.238 64.1586 143.989 63.4226C141.229 63.0408 137.271 60.8006 137.271 60.8006Z" fill="#FAFAFA"/>
<path d="M144.852 61.0536C145.788 61.2121 146.678 61.5522 147.463 62.0518C147.463 62.0518 150.228 64.9268 146.97 66.5506C147.192 65.8468 145.489 63.97 143.964 63.4226C146.718 63.0408 144.852 61.0536 144.852 61.0536Z" fill="#FAFAFA"/>
<path d="M144.27 65.0602C142.088 63.97 139.388 62.7878 140.138 64.6968C140.889 66.6058 139.896 67.2682 140.874 67.9168C141.851 68.5654 143.835 66.7852 144.492 66.5368C145.148 66.2884 144.27 65.0602 144.27 65.0602Z" fill="#EB0029"/>
<path d="M145.815 65.0464C147.478 64.0022 149.561 62.8706 149.191 64.7336C148.821 66.5966 149.739 67.2452 149.013 67.8754C148.288 68.5056 146.422 66.7438 145.83 66.4954C145.237 66.247 145.815 65.0464 145.815 65.0464Z" fill="#EB0029"/>
<path d="M143.974 64.913C144.467 64.637 145.672 64.2874 146.269 65.0372C146.866 65.787 146.674 67.0429 145.849 67.1947C145.555 67.2501 145.25 67.2302 144.966 67.1371C144.683 67.0439 144.432 66.881 144.24 66.6656C144.423 66.3907 144.497 66.0646 144.448 65.7443C144.399 65.4239 144.231 65.1297 143.974 64.913Z" fill="#EB0029"/>
<path d="M130.069 187.958L124.082 188.115L123.766 184.955L130.721 185.341L130.069 187.958Z" fill="black"/>
<path d="M157.701 187.949L151.235 188.115L150.519 185.378L157.74 184.725L157.701 187.949Z" fill="black"/>
<path d="M143.608 85.429C140.584 84.596 137.467 84.0942 134.319 83.934C133.647 83.9708 133.391 98.1066 133.445 103.889C133.445 104.671 143.1 104.514 145.568 104.16C145.706 102.546 145.735 90.7604 146.377 87.0758C146.426 86.7876 146.37 86.4923 146.218 86.2372C146.066 85.9821 145.826 85.7818 145.538 85.6682C144.927 85.4385 144.263 85.3562 143.608 85.429Z" fill="white"/>
<path d="M194.147 62.8016H166.743V63.5284H194.147V62.8016Z" fill="#EB0029"/>
<path d="M193.574 63.5284H167.315L168.322 64.039H192.572L193.574 63.5284Z" fill="#EB0029"/>
<path opacity="0.2" d="M193.574 63.5284H167.315L168.322 64.039H192.572L193.574 63.5284Z" fill="black"/>
<path d="M181.576 52.5344C181.577 52.7429 181.511 52.9471 181.387 53.1209C181.264 53.2947 181.088 53.4305 180.881 53.5109C180.675 53.5913 180.447 53.6128 180.228 53.5727C180.008 53.5326 179.806 53.4326 179.648 53.2855C179.489 53.1384 179.381 52.9507 179.337 52.7462C179.293 52.5417 179.315 52.3297 179.401 52.137C179.486 51.9442 179.631 51.7794 179.817 51.6635C180.003 51.5475 180.221 51.4856 180.445 51.4856C180.593 51.485 180.74 51.5117 180.877 51.5641C181.015 51.6166 181.139 51.6937 181.244 51.7912C181.349 51.8886 181.433 52.0044 181.489 52.132C181.546 52.2595 181.576 52.3963 181.576 52.5344Z" fill="#EB0029"/>
<path d="M192.291 59.4298C191.53 57.2334 190.083 55.2986 188.135 53.873L188.441 53.5096C190.468 54.9928 191.974 57.0062 192.765 59.2918L192.291 59.4298Z" fill="#EB0029"/>
<path d="M186.423 52.815C185.87 52.5304 185.294 52.2858 184.7 52.0836L184.868 51.6512C185.486 51.8677 186.084 52.1276 186.66 52.4286L186.423 52.815Z" fill="#EB0029"/>
<path d="M180.445 52.5344C177.472 52.5344 174.621 53.635 172.519 55.5942C170.416 57.5533 169.235 60.2104 169.235 62.981H191.654C191.654 60.2104 190.473 57.5533 188.371 55.5942C186.269 53.635 183.418 52.5344 180.445 52.5344Z" fill="#EB0029"/>
<path opacity="0.3" d="M170.781 62.0472H173.678C173.778 62.0456 173.875 62.0117 173.951 61.9514C174.028 61.891 174.079 61.8078 174.097 61.716C174.68 58.8548 176.511 56.3616 179.423 54.195C179.489 54.1455 179.536 54.0773 179.557 54.0008C179.578 53.9242 179.571 53.8434 179.538 53.7706C179.505 53.6979 179.448 53.6371 179.375 53.5974C179.301 53.5578 179.216 53.5415 179.132 53.551C176.93 53.8219 174.882 54.7535 173.298 56.2049C171.713 57.6563 170.679 59.5488 170.351 61.5964C170.343 61.653 170.349 61.7106 170.367 61.7651C170.385 61.8197 170.415 61.87 170.456 61.9127C170.497 61.9554 170.547 61.9895 170.603 62.0127C170.659 62.0359 170.719 62.0477 170.781 62.0472Z" fill="white"/>
<path d="M144.783 52.562C145.014 52.5714 145.245 52.5606 145.474 52.5298C145.505 52.5243 145.532 52.5076 145.549 52.4834C145.567 52.4593 145.574 52.4297 145.568 52.401C145.56 52.371 145.54 52.3448 145.513 52.327C145.486 52.3093 145.453 52.3013 145.42 52.3044C144.904 52.3759 144.378 52.3377 143.88 52.1927C143.383 52.0477 142.927 51.7997 142.547 51.4672C142.536 51.4562 142.523 51.4475 142.508 51.4415C142.493 51.4355 142.477 51.4324 142.461 51.4324C142.444 51.4324 142.428 51.4355 142.414 51.4415C142.399 51.4475 142.385 51.4562 142.374 51.4672C142.353 51.4892 142.341 51.5179 142.341 51.5477C142.341 51.5775 142.353 51.6062 142.374 51.6282C143.027 52.2041 143.884 52.5364 144.783 52.562Z" fill="#263238"/>
</svg>
